<svg xmlns="http://www.w3.org/2000/svg" width="430" height="430" style="width:100%;height:100%;transform:translate3d(0,0,0);content-visibility:visible" viewBox="0 0 430 430"><defs><clipPath id="g"><path d="M0 0h430v430H0z"/></clipPath><clipPath id="n"><path d="M0 0h430v430H0z"/></clipPath><clipPath id="d"><path d="M0 0h430v430H0z"/></clipPath><clipPath id="k"><path d="M0 0h430v430H0z"/></clipPath><clipPath id="e"><path d="M0 0h430v430H0z"/></clipPath><clipPath id="h"><path d="M0 0h430v430H0z"/></clipPath><clipPath id="f"><path d="M0 0h430v430H0z"/></clipPath><filter id="o" width="300%" height="300%" x="-100%" y="-100%"><feGaussianBlur result="filter_result_0"/></filter><filter id="m" width="300%" height="300%" x="-100%" y="-100%"><feGaussianBlur result="filter_result_0" stdDeviation="52.5 52.5"/></filter><filter id="i" width="300%" height="300%" x="-100%" y="-100%"><feGaussianBlur result="filter_result_0"/></filter><mask id="p" mask-type="alpha"><use xmlns:ns1="http://www.w3.org/1999/xlink" ns1:href="#a"/></mask><mask id="l" mask-type="alpha"><use xmlns:ns2="http://www.w3.org/1999/xlink" ns2:href="#b"/></mask><mask id="j" mask-type="alpha"><use xmlns:ns3="http://www.w3.org/1999/xlink" ns3:href="#c"/></mask><g id="a" fill-opacity="0" stroke-linecap="round" stroke-linejoin="round" clip-path="url(#d)" style="display:none"><path class="primary" style="display:none"/><path class="primary" style="display:none"/><path class="primary" style="display:none"/><path class="primary" style="display:none"/><path class="primary" style="display:none"/><path class="primary" style="display:none"/><path class="primary" style="display:none"/><g style="display:none"><path class="secondary"/><path class="secondary"/></g></g><g id="b" fill-opacity="0" stroke-linecap="round" stroke-width="3.5" clip-path="url(#e)" style="display:block"><path stroke="#121331" stroke-linejoin="round" d="M34.663-13.18C29.536-25.199 17.614-33.625 3.722-33.625c-12.984 0-24.241 7.364-29.844 18.139A10.43 10.43 0 0 0-29.354-16c-5.779 0-10.463 4.685-10.463 10.464 0 .774.09 1.526.249 2.252-6.227 3.278-10.479 9.802-10.479 17.328 0 10.814 8.767 19.581 19.581 19.581h56.271c13.388 0 24.242-10.853 24.242-24.241 0-10.261-6.379-19.026-15.384-22.564z" class="primary" style="display:block" transform="matrix(3.5 0 0 3.5 215 212.375)"/><path stroke="#121331" stroke-linejoin="round" d="M-19.496-9.07c-1.457-4.037-5.312-6.93-9.851-6.93m63.933 2.588A33.513 33.513 0 0 1 37.367 0s.011 3.551-1.221 7.909" class="primary" style="display:block" transform="matrix(3.5 0 0 3.5 215.301 212.375)"/><path stroke="#08A88A" d="M3.98-6.274V20.51M17.372 7.118H-9.412" class="secondary" style="display:block" transform="translate(211.853 213.612) scale(3.69999)"/></g><g id="c" fill-opacity="0" stroke-linecap="round" stroke-linejoin="round" clip-path="url(#f)" style="display:none"><path class="primary" style="display:none"/><path class="primary" style="display:none"/><path class="secondary" style="display:none"/><path class="secondary" style="display:none"/><path class="secondary" style="display:none"/><path class="secondary" style="display:none"/></g></defs><g clip-path="url(#g)"><g clip-path="url(#h)" filter="url(#i)" mask="url(#j)" style="display:none"><g class="design"><path class="primary"/></g><g class="design"><path class="secondary"/></g></g><g clip-path="url(#k)" mask="url(#l)" style="display:block"><g filter="url(#m)" transform="rotate(-94 246.006 -9.298) scale(2.4)"><g class="design"><path fill="#4BE1EC" d="M0-250c137.975 0 250 112.025 250 250S137.975 250 0 250-250 137.975-250 0-137.975-250 0-250z" class="primary"/></g><g class="design"><path fill="#CB5EEE" d="M113.242-295.384c97.478 0 176.5 79.022 176.5 176.5s-79.022 176.5-176.5 176.5c-43.948 0-74.396-34.057-105.29-60.631-37.631-32.369-71.21-62.338-71.21-115.869 0-97.478 79.022-176.5 176.5-176.5z" class="secondary"/></g></g></g><g clip-path="url(#n)" filter="url(#o)" mask="url(#p)" style="display:none"><g class="design"><path class="primary"/></g><g class="design"><path class="secondary"/></g></g></g></svg>